<?xml version="1.0" encoding="UTF-8"?>
<svg id="Layer_2" data-name="Layer 2" xmlns="http://www.w3.org/2000/svg" viewBox="0 0 16 16">
  <defs>
    <style>
      .cls-1 {
        fill: none;
      }

      .cls-1, .cls-2 {
        stroke: #261710;
        stroke-linejoin: round;
        stroke-width: .5px;
      }

      .cls-2 {
        fill: #261710;
      }

      .cls-3 {
        fill: #f39d52;
      }
    </style>
  </defs>
  <rect class="cls-3" width="16" height="16"/>
  <path class="cls-1" d="m6.9,4.87S3.8,1.32,5.42.48c1.62-.85,3.55,3.79,3.55,3.79,1.48.28,2.29,1,2.62,1.77.23.53.17,1.14-.14,1.63-.38.6-.91.92-.91.92,0,0,5.11,7.06-1.69,7.03-6.97-.03-1.64-7.03-1.64-7.03-2.13-1.64-.31-3.72-.31-3.72Z"/>
  <path class="cls-1" d="m6.9,4.87s-4.07-1.05-4.28.48c-.2,1.53,3.56,1.35,3.56,1.35"/>
  <circle class="cls-1" cx="8.91" cy="13.64" r="1.99"/>
  <ellipse class="cls-2" cx="9.88" cy="6.04" rx=".28" ry=".42"/>
</svg>