<?xml version="1.0" encoding="UTF-8"?>
<svg id="Layer_2" data-name="Layer 2" xmlns="http://www.w3.org/2000/svg" viewBox="0 0 165 245">
  <defs>
    <style>
      .cls-1 {
        fill: none;
        stroke: #f39d52;
        stroke-linejoin: round;
        stroke-width: 6px;
      }
    </style>
  </defs>
  <path class="cls-1" d="m73.24,74.53S25.79,20.03,50.63,7.06c24.84-12.98,54.5,58.21,54.5,58.21,22.74,4.22,35.15,15.31,40.23,27.14,3.5,8.15,2.59,17.55-2.13,25.06-5.82,9.26-14,14.17-14,14.17,0,0,78.42,108.38-25.95,107.89-106.96-.5-25.21-107.89-25.21-107.89-32.63-25.21-4.82-57.1-4.82-57.1Zm0,0S10.71,58.34,7.62,81.83c-3.09,23.48,54.58,20.76,54.58,20.76m41.87,75.95c-16.84,0-30.5,13.65-30.5,30.5s13.65,30.5,30.5,30.5,30.5-13.65,30.5-30.5-13.65-30.5-30.5-30.5Zm14.96-92.65c-2.35,0-4.26,2.89-4.26,6.47s1.91,6.47,4.26,6.47,4.26-2.89,4.26-6.47-1.91-6.47-4.26-6.47Z"/>
</svg>
