<?xml version="1.0" encoding="UTF-8"?>
<svg id="assets" xmlns="http://www.w3.org/2000/svg" viewBox="0 0 150 150">
  <defs>
    <style>
      .cls-1 {
        fill: #feb100;
      }

      .cls-2 {
        fill: #87c500;
      }
    </style>
  </defs>
  <path class="cls-1" d="m138.09,78.63c.32-.58,1.15-.58,1.46,0,1.74,3.18,4.36,5.8,7.54,7.54h0c.58.32.58,1.15,0,1.46h0c-3.18,1.74-5.8,4.36-7.54,7.54h0c-.32.58-1.15.58-1.46,0h0c-1.74-3.18-4.36-5.8-7.54-7.54h0c-.58-.32-.58-1.15,0-1.46h0c3.18-1.74,5.8-4.36,7.54-7.54Z"/>
  <path class="cls-2" d="m46.95,52.94c0-4.84-.68-8.36-2.03-10.59-1.36-2.22-3.43-3.34-6.24-3.34-2.52,0-4.48,2.25-5.88,6.74-1.4,4.5-2.1,10.81-2.1,18.93v24.37c0,2.23.31,3.82.94,4.79.63.97,1.47,1.69,2.54,2.18.58.19,1.02.6,1.31,1.23.29.63.46,1.26.51,1.89.05.63,0,1.19-.14,1.67-.14.48-.46.73-.94.73H1.1c-.39,0-.68-.24-.87-.73-.2-.48-.27-1.04-.22-1.67.05-.63.22-1.26.51-1.89.29-.63.73-1.04,1.3-1.23,1.06-.48,1.91-1.21,2.54-2.18.63-.97.94-2.56.94-4.79v-46.57c-.2-1.16-.58-2.22-1.16-3.19-.58-.96-1.26-1.6-2.03-1.89-.68-.19-1.14-.58-1.38-1.16-.24-.58-.36-1.16-.36-1.74s.17-1.09.51-1.52c.34-.43.75-.65,1.23-.65,3.09,0,6.6-.34,10.52-1.02,3.92-.67,7.57-1.4,10.95-2.18l7.11-2.03v10.73c1.35-2.9,2.97-5.15,4.86-6.74,1.89-1.6,4.14-2.78,6.75-3.55,7.64-2.03,13.93-1.69,18.86,1.02,4.93,2.71,8.22,6.87,9.86,12.48,1.26-3.96,2.95-7.01,5.08-9.14s4.74-3.58,7.83-4.35c4.74-1.16,8.97-1.43,12.69-.8,3.72.63,6.87,1.98,9.43,4.06,2.56,2.08,4.52,4.76,5.88,8.05,1.35,3.29,2.03,6.96,2.03,11.03v48.89c0,5.22.48,10.08,1.45,14.58.97,4.5,2.05,7.91,3.26,10.23,1.21,2.32,2.42,3.26,3.63,2.83,1.21-.44,2.1-2.93,2.68-7.47.48-3.77,1.72-6.65,3.7-8.63,1.98-1.98,4.18-3.22,6.6-3.7,2.42-.48,4.81-.34,7.18.43,2.37.77,4.18,1.93,5.44,3.48.87,1.06,1.47,2.34,1.81,3.84.34,1.5.36,3.05.07,4.64-.29,1.6-.92,3.19-1.89,4.79-.97,1.6-2.37,2.98-4.21,4.14-2.61,1.74-5.8,3.05-9.57,3.92-3.77.87-7.71,1.18-11.82.94-4.11-.24-8.17-1.07-12.18-2.47-4.01-1.4-7.62-3.53-10.81-6.38-3.19-2.85-5.78-6.48-7.76-10.88-1.98-4.4-2.98-9.7-2.98-15.89v-44.25c0-4.84-.68-8.36-2.03-10.59-1.36-2.22-3.43-3.34-6.24-3.34-2.52,0-4.48,2.25-5.88,6.74-1.4,4.5-2.1,10.81-2.1,18.93v24.37c0,2.23.31,3.82.94,4.79.63.97,1.47,1.69,2.54,2.18.68.29,1.16.73,1.45,1.3.29.58.46,1.19.51,1.81.05.63-.03,1.19-.22,1.67-.2.48-.53.73-1.02.73h-33.8c-.39,0-.7-.24-.94-.73-.24-.48-.34-1.04-.29-1.67.05-.63.22-1.23.51-1.81.29-.58.77-1.01,1.45-1.3,1.06-.48,1.91-1.21,2.54-2.18.63-.97.94-2.56.94-4.79v-36.12Z"/>
</svg>
