<?xml version="1.0" encoding="UTF-8"?>
<svg id="gojo_button" xmlns="http://www.w3.org/2000/svg" viewBox="0 0 300 300">
  <defs>
    <style>
      .cls-1 {
        fill: none;
        stroke: #1693bc;
        stroke-linecap: round;
        stroke-linejoin: round;
        stroke-width: 10px;
      }
    </style>
  </defs>
  <path class="cls-1" d="M62.4,62.4v233.6L4,237.6V4l58.4,58.4ZM62.4,62.4v233.6h233.6V62.4H62.4ZM237.6,4H4l58.4,58.4h233.6L237.6,4Z"/>
  <path class="cls-1" d="M119.95,168.51h118.5-118.5ZM157.79,227.86s8.44,5.48,21.41,5.48,21.41-5.48,21.41-5.48M238.55,205.49v-32.96s-2.33-37.35,15.65-44.4c0,0-6.69-6.32-23.79,5.4,0,0-5.39-16.02,5.95-27.56,0,0-19.66-4.45-30.25,17.39,0,0-10.18-17.57,4.79-29.47,0,0-25.14-4.41-31.69,27.32-6.55-31.72-31.69-27.32-31.69-27.32,14.96,11.9,4.79,29.47,4.79,29.47-10.59-21.84-30.25-17.39-30.25-17.39,11.34,11.54,5.95,27.56,5.95,27.56-17.1-11.72-23.79-5.4-23.79-5.4,17.98,7.05,15.65,44.4,15.65,44.4v32.96h118.7ZM119.85,205.49c5.99,28.58,29.17,52.1,59.31,52.1s53.32-23.51,59.39-52.1h-118.7Z"/>
</svg>