<?xml version="1.0" encoding="UTF-8"?>
<svg id="info" data-name="information" xmlns="http://www.w3.org/2000/svg" viewBox="0 0 300 300">
  <defs>
    <style>
      .cls-1, .cls-2 {
        fill: #fff;
      }

      .cls-2 {
        stroke-width: 10px;
      }

      .cls-2 {
        stroke: #fff;
        stroke-miterlimit: 10;
        stroke-width: 8px;
      }
    </style>
  </defs>
  <path class="cls-1" d="M150,12c36.86,0,71.52,14.35,97.58,40.42,26.06,26.06,40.42,60.72,40.42,97.58s-14.35,71.52-40.42,97.58-60.72,40.42-97.58,40.42-71.52-14.35-97.58-40.42c-26.06-26.06-40.42-60.72-40.42-97.58s14.35-71.52,40.42-97.58c26.06-26.06,60.72-40.42,97.58-40.42M150,4C69.37,4,4,69.37,4,150s65.37,146,146,146,146-65.37,146-146S230.63,4,150,4h0Z"/>
  <g>
    <path class="cls-2" d="M149.96,78.09c-3.78,0-7.03-1.36-9.74-4.08-2.71-2.72-4.07-5.96-4.07-9.72s1.36-7.18,4.07-9.87c2.71-2.69,5.96-4.04,9.74-4.04s7.12,1.35,9.83,4.04c2.71,2.69,4.07,5.95,4.07,9.77s-1.36,7.1-4.07,9.82c-2.71,2.72-5.99,4.08-9.83,4.08Z"/>
    <path class="cls-2" d="M136.08,242.58v-124.08c0-4.31,2.98-7.8,6.65-7.8h14.41c3.67,0,6.65,3.49,6.65,7.8v124.08c0,4.31-2.98,7.8-6.65,7.8h-14.41c-3.67,0-6.65-3.49-6.65-7.8Z"/>
  </g>
</svg>